<svg width="800" height="800" viewBox="0 0 800 800" fill="none" xmlns="http://www.w3.org/2000/svg">
<path d="M400 50C202.5 50 50 202.5 50 400C50 597.5 202.5 750 400 750C597.5 750 750 597.5 750 400C750 202.5 597.5 50 400 50ZM400 700C230 700 100 570 100 400C100 230 230 100 400 100C570 100 700 230 700 400C700 570 570 700 400 700Z" fill="#5E17EB"/>
<path d="M400 175C271.5 175 175 271.5 175 400C175 528.5 271.5 625 400 625C528.5 625 625 528.5 625 400C625 271.5 528.5 175 400 175ZM400 575C299.5 575 225 500.5 225 400C225 299.5 299.5 225 400 225C500.5 225 575 299.5 575 400C575 500.5 500.5 575 400 575Z" fill="#5E17EB"/>
<circle cx="400" cy="400" r="100" fill="#FF5E0E"/>
<path d="M700 400C700 570 570 700 400 700C230 700 100 570 100 400C100 230 230 100 400 100C570 100 700 230 700 400ZM650 400C650 257.5 542.5 150 400 150C257.5 150 150 257.5 150 400C150 542.5 257.5 650 400 650C542.5 650 650 542.5 650 400Z" fill="white"/>
<path d="M575 400C575 500.5 500.5 575 400 575C299.5 575 225 500.5 225 400C225 299.5 299.5 225 400 225C500.5 225 575 299.5 575 400ZM525 400C525 327.5 472.5 275 400 275C327.5 275 275 327.5 275 400C275 472.5 327.5 525 400 525C472.5 525 525 472.5 525 400Z" fill="white"/>
<path d="M400 100C570 100 700 230 700 400C700 570 570 700 400 700" stroke="#5E17EB" stroke-width="50" stroke-linecap="round"/>
<path d="M100 400C100 230 230 100 400 100" stroke="#5E17EB" stroke-width="50" stroke-linecap="round"/>
<path d="M400 700C230 700 100 570 100 400" stroke="#5E17EB" stroke-width="50" stroke-linecap="round"/>
<path d="M400 225C500.5 225 575 299.5 575 400C575 500.5 500.5 575 400 575" stroke="#5E17EB" stroke-width="50" stroke-linecap="round"/>
<path d="M225 400C225 299.5 299.5 225 400 225" stroke="#5E17EB" stroke-width="50" stroke-linecap="round"/>
<path d="M400 575C299.5 575 225 500.5 225 400" stroke="#5E17EB" stroke-width="50" stroke-linecap="round"/>
</svg>
